<svg id="svg" version="1.1" width="400" height="400" viewBox="0 0 400 400" xmlns="http://www.w3.org/2000/svg" xmlns:xlink="http://www.w3.org/1999/xlink" ><g id="svgg"><path id="path0" d="M97.963 149.300 C 80.598 150.465,66.689 159.557,66.006 170.190 C 65.674 175.370,68.550 177.927,75.258 178.414 C 78.516 178.651,78.085 179.165,78.907 174.074 C 80.111 166.618,84.414 162.434,93.176 160.202 C 96.649 159.318,98.519 159.047,98.519 159.429 C 98.519 159.522,98.104 161.980,97.597 164.892 C 93.443 188.750,92.214 210.380,94.852 213.188 C 96.656 215.108,99.983 216.093,105.953 216.475 L 109.499 216.702 110.546 213.999 C 111.712 210.987,115.501 202.009,116.904 198.931 C 118.208 196.073,122.661 185.478,123.889 182.315 C 125.356 178.537,125.384 178.656,125.253 188.140 C 125.112 198.305,126.018 213.944,126.840 215.532 C 128.011 217.797,132.060 218.756,138.694 218.342 L 142.848 218.082 144.803 212.467 C 149.648 198.555,157.748 179.967,163.310 170.000 C 164.390 168.065,165.785 165.565,166.409 164.444 C 167.853 161.856,170.395 157.903,172.604 154.815 C 173.551 153.491,174.442 152.205,174.584 151.958 C 175.199 150.887,169.278 148.889,165.491 148.889 C 162.360 148.889,157.061 150.306,156.030 151.419 C 153.685 153.949,148.226 166.528,143.381 180.563 C 140.041 190.242,138.155 195.244,137.075 197.290 L 136.329 198.704 136.313 197.407 C 136.260 193.256,139.290 173.376,142.070 159.631 L 143.381 153.151 142.425 152.329 C 141.117 151.204,138.474 150.480,134.549 150.173 L 131.248 149.915 130.238 151.115 C 128.180 153.561,123.842 161.427,116.249 176.481 C 109.007 190.840,104.775 198.889,104.469 198.889 C 104.234 198.889,106.223 188.334,107.750 181.481 C 107.954 180.565,108.718 176.981,109.447 173.519 C 111.154 165.409,113.513 155.881,114.446 153.328 C 115.448 150.587,114.132 149.895,107.037 149.430 C 105.306 149.317,103.472 149.180,102.963 149.126 C 102.454 149.071,100.204 149.150,97.963 149.300 M218.148 149.293 C 214.528 149.559,209.261 150.467,208.456 150.965 C 208.263 151.084,208.213 151.673,208.344 152.273 C 208.846 154.556,205.674 155.410,203.881 153.475 L 202.982 152.505 199.829 154.088 L 196.677 155.672 196.898 157.060 C 197.180 158.822,196.255 159.448,193.892 159.094 C 192.081 158.822,190.288 160.441,188.069 164.352 C 187.390 165.549,186.802 166.200,186.539 166.045 C 186.304 165.906,185.611 165.421,185.000 164.967 C 180.906 161.922,176.280 162.704,175.191 166.624 C 174.210 170.155,174.967 172.175,177.897 173.845 C 181.266 175.765,182.261 175.512,184.258 172.224 C 185.851 169.603,186.155 169.490,186.233 171.496 C 186.392 175.554,189.625 177.939,195.595 178.402 L 198.413 178.620 199.068 174.958 C 200.581 166.501,204.566 162.447,213.630 160.148 C 218.362 158.947,219.008 158.964,218.741 160.278 C 214.561 180.872,212.507 210.208,215.047 213.015 C 216.891 215.053,220.266 216.103,226.111 216.458 L 229.815 216.683 230.896 213.990 C 231.882 211.532,233.264 208.286,240.165 192.222 C 241.433 189.269,243.110 185.227,243.891 183.241 C 244.672 181.255,245.407 179.630,245.525 179.630 C 245.644 179.631,245.750 184.839,245.760 191.204 C 245.780 202.880,246.372 213.762,247.070 215.294 C 248.163 217.695,252.322 218.763,258.958 218.348 L 263.261 218.080 265.186 212.466 C 272.924 189.907,284.356 166.608,294.753 152.209 C 295.850 150.689,289.279 148.619,284.630 149.021 C 277.620 149.625,276.696 150.253,273.374 156.667 C 270.110 162.969,268.548 166.911,262.591 183.889 C 260.042 191.154,258.241 195.803,257.354 197.407 L 256.637 198.704 256.865 195.556 C 257.360 188.701,260.055 171.247,262.411 159.630 L 263.726 153.148 262.783 152.327 C 261.469 151.184,258.765 150.459,254.733 150.170 L 251.296 149.923 249.670 152.414 C 246.723 156.927,244.083 161.830,234.969 179.708 C 226.407 196.506,224.854 199.422,224.607 199.175 C 224.498 199.066,225.167 195.727,228.747 178.519 C 231.088 167.269,233.731 156.295,234.809 153.348 C 235.812 150.605,234.549 149.920,227.593 149.436 C 225.963 149.323,224.046 149.180,223.333 149.119 C 222.620 149.058,220.287 149.136,218.148 149.293 M298.150 176.326 C 285.527 178.852,273.874 200.763,280.434 209.636 C 284.129 214.634,291.631 214.288,297.644 208.842 C 299.812 206.879,300.370 206.655,300.370 207.749 C 300.370 211.119,306.612 212.851,311.293 210.781 C 317.584 207.998,328.287 190.585,325.228 188.109 C 323.200 186.466,321.390 187.782,317.987 193.374 C 310.032 206.445,307.117 203.601,312.439 187.963 C 313.895 183.684,313.748 183.114,310.816 181.673 C 309.979 181.262,309.286 180.730,309.277 180.491 C 309.172 177.873,302.640 175.427,298.150 176.326 M166.576 181.944 C 156.905 201.146,156.388 211.546,165.017 213.337 C 172.416 214.873,177.875 210.378,185.502 196.471 C 188.489 191.026,188.663 190.129,187.009 188.737 C 184.900 186.962,183.534 187.805,180.473 192.769 C 176.836 198.668,172.780 203.333,171.289 203.333 C 168.677 203.333,174.013 189.502,180.400 179.719 L 181.188 178.513 179.855 177.956 C 177.424 176.940,174.320 176.296,171.855 176.296 L 169.420 176.296 166.576 181.944 M305.115 183.399 C 305.404 185.907,292.752 204.444,290.750 204.444 C 288.719 204.444,289.687 197.757,292.383 193.156 C 296.623 185.921,304.691 179.738,305.115 183.399 M332.759 202.002 C 326.457 204.747,329.894 214.046,336.549 212.254 C 338.718 211.670,339.500 210.703,338.522 209.818 C 337.842 209.203,337.722 209.195,337.130 209.729 C 333.912 212.628,329.326 207.677,332.391 204.613 C 333.493 203.510,336.033 203.350,337.100 204.317 C 337.732 204.888,337.828 204.884,338.522 204.257 C 340.330 202.620,335.595 200.767,332.759 202.002 M344.445 201.878 C 338.674 204.302,340.208 212.327,346.454 212.388 C 352.088 212.443,354.137 205.902,349.556 202.482 C 348.433 201.643,345.756 201.327,344.445 201.878 M354.444 206.451 C 354.444 212.088,354.553 212.593,355.765 212.593 C 356.600 212.593,356.641 212.466,356.744 209.582 L 356.852 206.571 358.286 208.656 C 360.049 211.219,360.045 211.219,361.755 208.640 L 363.148 206.540 363.256 209.566 L 363.363 212.593 364.459 212.593 L 365.556 212.593 365.556 207.037 C 365.556 200.316,365.423 200.215,362.365 204.625 C 359.742 208.409,360.261 208.409,357.663 204.620 C 354.656 200.234,354.444 200.355,354.444 206.451 M348.406 204.058 C 350.659 205.431,350.497 208.870,348.119 210.150 C 345.750 211.426,342.963 209.839,342.963 207.215 C 342.963 204.039,345.736 202.430,348.406 204.058 M325.396 210.212 C 324.688 210.920,324.677 211.151,325.306 212.012 C 326.000 212.961,327.407 212.474,327.407 211.284 C 327.407 210.079,326.183 209.426,325.396 210.212 " stroke="none" fill="#3bb327" fill-rule="evenodd"></path><path id="path1" d="M0.000 200.000 L 0.000 400.000 200.000 400.000 L 400.000 400.000 400.000 200.000 L 400.000 0.000 200.000 0.000 L 0.000 0.000 0.000 200.000 M204.964 127.425 C 205.706 129.280,205.260 130.496,203.957 130.169 C 200.145 129.212,201.392 140.399,205.554 144.497 C 206.498 145.426,207.143 146.558,207.629 148.138 L 208.333 150.430 209.630 150.227 C 210.343 150.115,212.509 149.769,214.444 149.459 C 224.124 147.906,236.982 149.557,235.581 152.174 C 234.892 153.462,235.118 153.979,236.481 154.235 C 238.021 154.524,238.004 154.390,236.906 157.620 C 235.452 161.900,229.429 188.395,229.815 188.817 C 229.872 188.879,232.997 182.879,236.759 175.484 C 242.909 163.396,247.306 155.346,249.921 151.389 L 250.839 150.000 254.045 150.000 C 259.920 150.000,263.960 151.552,263.791 153.744 C 263.708 154.819,263.867 155.122,264.809 155.678 C 266.186 156.492,266.192 156.165,264.660 163.638 C 263.060 171.445,260.113 189.292,260.493 188.875 C 260.579 188.781,261.837 185.225,263.290 180.974 C 267.935 167.379,273.468 154.504,276.012 151.374 C 279.075 147.604,297.665 148.530,295.010 152.320 C 294.241 153.418,294.280 153.546,295.543 154.069 C 297.626 154.932,297.619 155.275,295.459 158.214 C 286.383 170.562,275.609 193.222,266.240 219.671 L 265.503 221.750 263.030 221.983 C 254.855 222.755,250.031 221.585,249.053 218.591 C 248.838 217.931,248.309 217.145,247.878 216.843 C 246.500 215.878,245.792 209.665,245.090 192.407 L 245.000 190.185 242.267 196.481 C 239.439 202.995,235.819 211.461,233.418 217.175 L 232.037 220.462 228.024 220.209 C 221.670 219.809,217.220 217.974,216.458 215.440 C 216.324 214.994,215.691 214.079,215.052 213.405 L 213.889 212.180 213.901 202.109 C 213.915 190.332,214.717 181.909,217.091 168.611 C 218.042 163.283,218.079 163.358,214.888 164.183 C 206.248 166.418,201.111 172.654,201.111 180.906 L 201.111 182.222 198.907 182.222 C 194.145 182.222,190.801 180.854,189.236 178.264 C 188.766 177.487,188.088 176.466,187.730 175.994 L 187.077 175.136 186.076 176.735 C 184.790 178.787,184.528 178.954,182.946 178.724 C 181.784 178.556,181.556 178.664,180.972 179.652 L 180.311 180.770 181.818 181.404 C 183.504 182.112,183.633 182.469,182.662 183.746 C 180.046 187.191,173.051 201.417,174.377 200.597 C 175.056 200.177,178.142 195.877,180.395 192.211 C 182.686 188.483,183.530 187.778,185.701 187.778 C 187.146 187.778,188.041 188.633,188.383 190.339 C 188.516 191.008,189.018 191.948,189.498 192.427 C 191.198 194.128,190.843 195.138,185.145 204.815 C 182.564 209.198,181.953 210.017,178.967 213.095 C 173.627 218.599,165.127 218.830,162.189 213.550 C 161.726 212.718,160.898 211.454,160.349 210.741 C 156.818 206.154,158.665 197.007,166.129 182.116 L 169.139 176.111 170.948 175.995 C 172.609 175.888,176.674 176.408,177.922 176.887 C 178.624 177.157,176.951 173.855,175.750 172.602 C 173.886 170.656,174.371 165.432,176.577 163.693 C 178.268 162.361,182.237 162.746,184.877 164.499 L 186.898 165.841 187.801 164.138 C 188.297 163.202,189.572 161.498,190.633 160.351 C 191.780 159.112,192.428 158.130,192.230 157.930 C 191.334 157.021,190.809 155.424,191.130 154.581 C 191.504 153.596,191.072 153.413,190.370 154.259 C 189.730 155.031,189.259 154.953,189.259 154.074 C 189.259 153.639,189.012 153.333,188.661 153.333 C 188.078 153.333,188.078 152.911,188.661 151.481 C 188.829 151.069,188.127 150.560,185.943 149.511 C 179.532 146.431,177.673 142.342,181.458 139.646 C 184.390 137.559,197.407 133.591,197.407 134.785 C 197.407 134.972,196.323 135.486,194.997 135.927 C 192.155 136.873,192.076 137.529,194.892 136.798 C 197.545 136.110,198.056 136.390,195.624 137.199 C 193.248 137.989,193.305 138.353,195.710 137.747 C 198.042 137.160,198.284 137.587,196.140 138.506 C 194.191 139.342,194.103 140.153,196.021 139.602 C 197.606 139.148,197.674 139.165,196.830 139.803 C 196.129 140.333,196.132 140.347,196.944 140.359 C 198.068 140.374,198.004 141.040,196.852 141.329 C 195.518 141.664,195.692 142.332,197.037 142.037 C 197.648 141.903,198.148 141.946,198.148 142.133 C 198.148 142.462,196.500 143.404,195.741 143.509 C 194.484 143.684,194.043 144.200,194.269 145.232 C 194.460 146.101,194.396 146.255,193.918 146.071 C 193.597 145.948,193.333 145.698,193.333 145.516 C 193.333 144.997,192.220 145.129,192.012 145.673 C 191.542 146.897,192.792 148.202,193.744 147.481 C 194.838 146.652,199.801 144.444,200.570 144.444 C 201.610 144.444,201.539 143.433,200.204 139.216 C 197.839 131.747,198.159 128.923,201.606 126.857 C 203.741 125.577,204.260 125.665,204.964 127.425 M189.296 147.924 C 188.790 148.463,188.613 148.903,188.845 149.047 C 189.055 149.177,189.139 149.511,189.033 149.789 C 188.664 150.750,189.448 150.662,190.715 149.602 C 191.958 148.561,191.971 148.523,191.305 147.788 C 190.445 146.837,190.309 146.846,189.296 147.924 M170.553 149.333 C 173.871 150.171,175.840 151.915,174.444 152.778 C 173.800 153.176,174.039 153.599,175.173 154.069 C 177.256 154.932,177.249 155.275,175.089 158.214 C 171.533 163.051,166.925 170.953,162.492 179.815 C 157.296 190.204,151.097 204.768,147.595 214.815 C 146.850 216.954,145.986 219.398,145.674 220.246 L 145.109 221.788 141.568 222.054 C 133.643 222.648,128.519 221.060,128.519 218.011 C 128.519 217.694,128.187 217.256,127.782 217.039 C 126.174 216.179,124.863 205.361,124.798 192.407 L 124.784 189.815 123.840 192.037 C 123.321 193.259,121.175 198.176,119.071 202.963 C 116.968 207.750,114.551 213.417,113.701 215.556 C 112.850 217.694,112.059 219.676,111.943 219.960 C 111.698 220.560,106.180 220.344,102.486 219.589 C 99.589 218.998,96.612 217.179,96.242 215.775 C 96.087 215.183,95.415 214.138,94.751 213.452 L 93.542 212.206 93.394 204.991 C 93.188 194.975,94.147 184.083,96.490 169.815 C 96.992 166.759,97.404 164.062,97.405 163.820 C 97.408 163.215,92.717 164.527,89.761 165.959 C 84.176 168.663,81.576 172.993,80.660 181.111 C 80.503 182.501,75.244 182.442,72.126 181.014 C 69.068 179.614,65.556 174.314,65.556 171.100 C 65.556 158.592,83.271 148.286,103.519 149.015 C 112.301 149.332,116.176 150.371,115.221 152.155 C 114.571 153.370,114.727 154.073,115.648 154.080 C 117.519 154.092,117.632 154.536,116.559 157.660 C 114.699 163.072,108.751 189.614,109.613 188.649 C 109.769 188.476,112.900 182.417,116.571 175.185 C 123.475 161.585,126.153 156.653,128.915 152.453 L 130.527 150.000 133.704 150.000 C 139.531 150.000,143.947 151.725,143.553 153.846 C 143.368 154.845,143.488 155.085,144.447 155.631 C 145.816 156.410,145.841 155.774,144.093 164.630 C 142.247 173.985,139.825 188.817,140.207 188.435 C 140.303 188.339,141.465 185.132,142.789 181.308 C 147.616 167.362,150.953 159.343,154.313 153.612 C 156.225 150.351,156.262 150.323,159.815 149.504 C 164.147 148.506,167.093 148.459,170.553 149.333 M200.000 152.476 C 196.711 153.416,195.560 154.092,196.012 154.815 C 196.388 155.418,196.665 155.351,199.673 153.937 C 203.892 151.953,204.033 151.323,200.000 152.476 M305.926 176.825 C 307.603 177.691,308.886 178.863,309.285 179.897 C 309.460 180.350,310.159 180.952,310.837 181.235 C 312.398 181.887,314.166 183.943,313.896 184.792 C 313.767 185.198,314.096 185.782,314.811 186.419 C 316.123 187.589,316.156 187.908,315.211 190.306 C 314.166 192.955,312.522 199.183,312.672 199.921 C 312.839 200.739,314.691 198.248,317.845 192.963 C 321.768 186.391,324.989 185.121,326.336 189.615 C 326.578 190.423,327.168 191.453,327.647 191.903 C 328.910 193.089,328.771 194.695,327.166 197.473 C 326.422 198.761,325.137 200.981,324.311 202.407 C 320.475 209.024,316.358 213.441,312.768 214.791 C 308.504 216.394,303.972 215.196,302.827 212.161 C 302.315 210.805,301.970 210.838,300.181 212.410 C 295.208 216.783,290.243 218.105,286.111 216.157 C 283.709 215.024,281.546 212.504,279.201 208.108 C 274.716 199.700,285.289 179.951,296.111 176.522 C 298.622 175.727,304.126 175.897,305.926 176.825 M300.327 189.943 C 296.680 193.612,294.476 196.848,293.030 200.653 C 291.630 204.338,294.210 201.299,299.646 192.860 C 303.131 187.448,303.231 187.020,300.327 189.943 M338.485 202.568 L 339.698 203.433 338.770 204.361 L 337.842 205.289 336.834 204.497 C 334.487 202.650,331.156 204.862,331.742 207.879 C 332.137 209.913,335.491 211.232,336.667 209.815 C 337.291 209.063,338.273 209.115,339.020 209.940 C 340.654 211.746,335.041 213.495,332.248 212.050 C 328.268 209.992,328.131 204.595,331.996 202.165 C 333.583 201.167,336.797 201.367,338.485 202.568 M349.234 202.024 C 354.574 204.785,352.514 212.587,346.444 212.591 C 343.064 212.594,340.655 210.282,340.655 207.037 C 340.655 202.840,345.423 200.053,349.234 202.024 M357.804 204.437 C 360.241 208.019,359.822 208.018,362.248 204.452 C 365.289 199.982,365.556 200.200,365.556 207.158 L 365.556 212.835 364.459 212.674 C 363.368 212.514,363.363 212.501,363.256 209.727 L 363.148 206.941 361.714 209.026 C 360.925 210.173,360.154 211.111,360.000 211.111 C 359.846 211.111,359.075 210.173,358.286 209.026 L 356.852 206.941 356.744 209.767 L 356.636 212.593 355.540 212.593 L 354.444 212.593 354.444 207.037 C 354.444 200.170,354.743 199.939,357.804 204.437 M344.722 204.104 C 343.683 204.709,342.886 206.586,343.153 207.800 C 343.658 210.101,346.711 211.131,348.605 209.641 C 351.746 207.170,348.182 202.088,344.722 204.104 M327.403 210.180 C 328.222 211.167,327.557 212.593,326.278 212.593 C 325.025 212.593,324.615 211.956,324.967 210.555 C 325.235 209.489,326.649 209.272,327.403 210.180 " stroke="none" fill="#fbfbfb" fill-rule="evenodd"></path><path id="path2" d="M201.819 127.008 C 198.524 129.077,198.119 132.193,200.295 138.744 C 202.131 144.274,202.223 143.953,198.333 145.530 C 193.548 147.471,188.519 151.019,188.519 152.455 C 188.519 153.330,189.299 153.026,192.387 150.950 C 196.515 148.175,198.580 147.338,201.394 147.300 C 204.672 147.256,205.102 147.922,202.168 148.500 C 194.483 150.012,189.375 154.224,192.020 156.869 C 193.199 158.048,194.794 158.057,195.889 156.892 L 196.721 156.005 195.361 154.645 C 194.612 153.896,194.058 153.233,194.130 153.171 C 194.645 152.719,196.908 151.807,199.198 151.127 L 201.915 150.320 203.087 151.632 C 205.586 154.427,207.652 153.640,207.470 149.963 C 207.338 147.295,206.690 145.763,205.134 144.440 C 204.101 143.562,202.996 141.017,201.274 135.556 C 200.120 131.894,200.870 128.889,202.939 128.889 C 204.360 128.889,204.934 128.138,204.462 126.897 C 204.003 125.691,203.908 125.696,201.819 127.008 M193.704 135.449 C 188.977 136.281,181.946 139.156,180.534 140.834 C 178.420 143.346,180.700 146.481,186.211 148.640 C 188.219 149.426,188.205 149.429,187.938 148.365 C 187.527 146.728,189.721 145.253,190.741 146.481 C 191.501 147.397,191.984 147.108,191.339 146.124 C 190.300 144.539,191.743 143.278,193.206 144.493 C 193.743 144.938,193.780 144.899,193.541 144.146 C 193.223 143.144,193.855 142.222,194.860 142.222 C 195.243 142.222,195.556 142.081,195.556 141.908 C 195.556 141.736,195.931 141.414,196.389 141.193 C 197.197 140.803,197.190 140.790,196.152 140.766 C 194.890 140.736,193.933 139.690,194.520 138.983 C 194.807 138.638,194.719 138.519,194.177 138.519 C 193.341 138.519,191.965 137.170,192.379 136.757 C 192.530 136.605,193.349 136.199,194.197 135.854 C 195.707 135.240,195.563 135.122,193.704 135.449 " stroke="none" fill="#dfb030" fill-rule="evenodd"></path><path id="path3" d="M98.426 149.157 C 99.088 149.239,100.171 149.239,100.833 149.157 C 101.495 149.075,100.954 149.007,99.630 149.007 C 98.306 149.007,97.764 149.075,98.426 149.157 M103.618 149.157 C 104.283 149.240,105.283 149.238,105.840 149.154 C 106.397 149.069,105.852 149.002,104.630 149.004 C 103.407 149.006,102.952 149.075,103.618 149.157 M218.803 149.157 C 219.469 149.240,220.469 149.238,221.025 149.154 C 221.582 149.069,221.037 149.002,219.815 149.004 C 218.593 149.006,218.137 149.075,218.803 149.157 M223.796 149.154 C 224.356 149.239,225.273 149.239,225.833 149.154 C 226.394 149.069,225.935 149.000,224.815 149.000 C 223.694 149.000,223.236 149.069,223.796 149.154 M207.541 151.323 C 207.569 151.817,207.718 152.222,207.870 152.222 C 208.407 152.222,208.141 153.627,207.562 153.849 C 206.169 154.384,204.985 154.063,203.960 152.874 L 202.921 151.667 203.484 152.825 C 204.271 154.446,207.102 155.150,208.082 153.969 C 208.591 153.355,208.462 150.803,207.911 150.589 C 207.659 150.491,207.510 150.787,207.541 151.323 M291.015 157.685 C 286.744 164.156,278.139 179.743,278.589 180.194 C 278.675 180.280,279.736 178.397,280.946 176.011 C 283.874 170.242,289.206 160.939,291.823 157.037 C 294.367 153.242,294.538 152.963,294.311 152.963 C 294.213 152.963,292.730 155.088,291.015 157.685 M172.141 155.463 C 169.371 159.324,165.803 165.186,166.064 165.447 C 166.159 165.542,166.438 165.230,166.684 164.754 C 167.449 163.276,171.215 157.289,172.237 155.926 C 173.408 154.364,173.806 153.704,173.575 153.704 C 173.480 153.704,172.835 154.495,172.141 155.463 M113.704 155.556 C 113.473 156.411,113.357 157.184,113.446 157.273 C 113.534 157.362,113.787 156.725,114.007 155.859 C 114.227 154.992,114.343 154.219,114.265 154.141 C 114.187 154.063,113.934 154.700,113.704 155.556 M263.185 155.593 C 263.049 156.441,263.011 157.208,263.099 157.297 C 263.187 157.385,263.376 156.768,263.519 155.926 C 263.661 155.084,263.700 154.317,263.605 154.222 C 263.510 154.127,263.321 154.744,263.185 155.593 M195.713 157.114 C 195.125 157.804,195.115 157.861,195.657 157.441 C 196.472 156.809,196.969 157.222,196.418 158.073 C 196.118 158.536,195.531 158.693,194.209 158.662 C 192.443 158.621,192.432 158.628,193.639 159.001 C 195.285 159.511,196.812 158.970,196.976 157.820 C 197.163 156.506,196.533 156.154,195.713 157.114 M112.804 158.730 C 112.668 159.273,112.628 159.788,112.715 159.876 C 112.803 159.963,112.985 159.590,113.122 159.048 C 113.258 158.505,113.298 157.989,113.211 157.902 C 113.123 157.815,112.940 158.187,112.804 158.730 M97.092 159.521 C 97.999 159.660,98.062 159.788,97.938 161.225 C 97.821 162.590,97.843 162.643,98.118 161.667 C 98.719 159.535,98.623 159.254,97.315 159.315 C 96.251 159.364,96.225 159.388,97.092 159.521 M215.741 159.657 C 214.913 159.888,215.091 159.917,216.441 159.768 C 217.725 159.627,218.343 159.712,218.565 160.062 C 218.804 160.440,218.879 160.403,218.883 159.907 C 218.889 159.193,217.732 159.101,215.741 159.657 M262.074 161.148 C 261.938 161.997,261.900 162.764,261.988 162.852 C 262.076 162.941,262.265 162.324,262.407 161.481 C 262.550 160.639,262.588 159.872,262.493 159.777 C 262.399 159.682,262.210 160.299,262.074 161.148 M92.407 160.370 C 91.941 160.571,91.872 160.689,92.222 160.689 C 92.528 160.689,93.111 160.545,93.519 160.370 C 93.985 160.170,94.054 160.052,93.704 160.052 C 93.398 160.052,92.815 160.195,92.407 160.370 M141.687 161.317 C 141.548 162.060,141.508 162.742,141.598 162.833 C 141.689 162.923,141.877 162.389,142.016 161.646 C 142.156 160.903,142.196 160.221,142.105 160.130 C 142.015 160.040,141.827 160.574,141.687 161.317 M112.083 161.528 C 111.775 163.072,112.074 163.371,112.407 161.852 C 112.548 161.212,112.586 160.611,112.492 160.516 C 112.397 160.422,112.213 160.877,112.083 161.528 M123.591 161.671 C 123.252 162.382,123.051 162.963,123.145 162.963 C 123.398 162.963,124.522 160.695,124.353 160.526 C 124.273 160.445,123.930 160.961,123.591 161.671 M210.730 160.904 C 206.899 162.316,202.762 165.233,201.801 167.199 C 201.595 167.619,202.148 167.191,203.028 166.247 C 205.133 163.992,206.585 163.045,210.175 161.589 C 213.019 160.435,213.452 159.901,210.730 160.904 M232.249 162.434 C 231.994 163.571,231.857 164.573,231.945 164.661 C 232.032 164.748,232.312 163.889,232.566 162.751 C 232.821 161.614,232.958 160.612,232.870 160.525 C 232.783 160.437,232.503 161.296,232.249 162.434 M87.475 162.233 C 83.245 164.350,79.192 169.249,79.278 172.140 C 79.289 172.491,79.664 171.830,80.112 170.672 C 81.757 166.416,84.627 163.652,89.465 161.663 C 90.676 161.166,91.394 160.754,91.061 160.750 C 90.729 160.745,89.115 161.412,87.475 162.233 M140.943 165.017 C 140.801 165.962,140.761 166.810,140.854 166.903 C 140.946 166.995,141.138 166.298,141.279 165.354 C 141.421 164.409,141.461 163.560,141.369 163.467 C 141.276 163.375,141.084 164.072,140.943 165.017 M261.133 165.948 C 260.876 167.388,260.738 168.640,260.828 168.730 C 260.918 168.819,261.202 167.715,261.460 166.275 C 261.717 164.834,261.854 163.583,261.764 163.493 C 261.674 163.403,261.390 164.508,261.133 165.948 M111.524 164.136 C 111.501 164.476,111.386 165.060,111.268 165.433 C 111.066 166.076,111.077 166.077,111.478 165.451 C 111.711 165.088,111.826 164.505,111.735 164.155 C 111.584 163.582,111.563 163.580,111.524 164.136 M121.111 166.296 C 120.695 167.111,120.439 167.778,120.541 167.778 C 120.642 167.778,121.066 167.111,121.481 166.296 C 121.897 165.481,122.154 164.815,122.052 164.815 C 121.950 164.815,121.527 165.481,121.111 166.296 M241.481 166.296 C 241.066 167.111,240.809 167.778,240.911 167.778 C 241.013 167.778,241.436 167.111,241.852 166.296 C 242.268 165.481,242.524 164.815,242.422 164.815 C 242.321 164.815,241.897 165.481,241.481 166.296 M164.972 166.944 C 163.090 169.814,153.858 188.796,154.186 189.124 C 154.264 189.202,155.551 186.639,157.047 183.429 C 159.827 177.464,162.909 171.340,164.877 167.870 C 166.042 165.817,166.103 165.221,164.972 166.944 M110.576 167.984 C 110.437 168.727,110.397 169.409,110.487 169.500 C 110.578 169.590,110.766 169.056,110.905 168.313 C 111.045 167.569,111.085 166.887,110.994 166.797 C 110.904 166.706,110.716 167.240,110.576 167.984 M230.947 167.984 C 230.807 168.727,230.767 169.409,230.858 169.500 C 230.948 169.590,231.136 169.056,231.276 168.313 C 231.415 167.569,231.455 166.887,231.365 166.797 C 231.274 166.706,231.086 167.240,230.947 167.984 M140.202 169.091 C 140.060 170.036,140.020 170.884,140.113 170.977 C 140.205 171.070,140.397 170.372,140.539 169.428 C 140.680 168.483,140.721 167.634,140.628 167.542 C 140.535 167.449,140.344 168.146,140.202 169.091 M200.452 169.716 C 199.688 171.444,198.329 178.082,198.670 178.423 C 198.962 178.715,199.150 177.958,199.606 174.671 C 199.829 173.064,200.344 170.996,200.751 170.077 C 201.158 169.157,201.419 168.333,201.332 168.245 C 201.244 168.158,200.849 168.820,200.452 169.716 M260.216 171.142 C 260.077 172.191,260.038 173.124,260.129 173.215 C 260.220 173.306,260.412 172.526,260.556 171.481 C 260.699 170.437,260.739 169.504,260.643 169.408 C 260.547 169.313,260.355 170.093,260.216 171.142 M65.656 171.111 C 65.656 172.028,65.729 172.403,65.817 171.944 C 65.905 171.486,65.905 170.736,65.817 170.278 C 65.729 169.819,65.656 170.194,65.656 171.111 M184.257 172.225 C 183.514 173.449,182.460 174.693,181.916 174.988 C 180.777 175.607,181.005 175.718,182.357 175.204 C 182.865 175.011,183.557 174.269,183.896 173.555 C 184.235 172.841,184.914 171.824,185.404 171.295 C 186.374 170.248,186.479 170.000,185.953 170.000 C 185.764 170.000,185.001 171.001,184.257 172.225 M185.969 172.275 C 185.881 175.033,190.894 178.966,193.788 178.411 C 194.554 178.264,194.542 178.244,193.658 178.199 C 190.055 178.012,186.921 175.476,186.270 172.222 L 186.011 170.926 185.969 172.275 M139.461 173.535 C 139.320 174.480,139.287 175.336,139.389 175.438 C 139.491 175.540,139.690 174.850,139.832 173.906 C 139.973 172.961,140.006 172.105,139.904 172.003 C 139.802 171.901,139.603 172.591,139.461 173.535 M229.109 176.701 C 228.548 179.366,228.159 181.616,228.245 181.702 C 228.331 181.788,228.860 179.678,229.421 177.014 C 229.983 174.350,230.371 172.100,230.285 172.013 C 230.199 171.927,229.669 174.037,229.109 176.701 M78.721 174.646 C 78.579 175.591,78.546 176.448,78.648 176.549 C 78.750 176.651,78.949 175.962,79.091 175.017 C 79.233 174.072,79.265 173.216,79.163 173.114 C 79.061 173.012,78.862 173.702,78.721 174.646 M109.111 174.852 C 108.975 175.701,108.937 176.468,109.025 176.556 C 109.113 176.644,109.302 176.027,109.444 175.185 C 109.587 174.343,109.625 173.576,109.531 173.481 C 109.436 173.386,109.247 174.003,109.111 174.852 M177.037 173.479 C 177.037 173.902,179.425 175.183,180.185 175.168 C 180.625 175.159,180.361 174.951,179.534 174.656 C 178.768 174.383,177.893 173.953,177.589 173.701 C 177.285 173.449,177.037 173.349,177.037 173.479 M259.475 175.586 C 259.336 176.636,259.297 177.568,259.388 177.660 C 259.479 177.751,259.671 176.971,259.815 175.926 C 259.958 174.881,259.998 173.948,259.902 173.853 C 259.807 173.757,259.614 174.537,259.475 175.586 M67.593 175.894 C 68.903 177.352,71.218 178.509,72.778 178.485 C 73.755 178.471,71.119 177.495,69.908 177.424 C 69.756 177.415,68.923 176.788,68.057 176.032 C 66.514 174.685,66.505 174.682,67.593 175.894 M138.689 177.949 C 138.546 179.096,138.509 180.114,138.607 180.212 C 138.705 180.310,138.896 179.445,139.031 178.291 C 139.167 177.136,139.204 176.118,139.114 176.028 C 139.024 175.937,138.833 176.802,138.689 177.949 M168.130 178.185 C 167.503 179.427,167.133 180.355,167.309 180.246 C 167.485 180.137,168.020 179.212,168.500 178.189 L 169.371 176.329 171.630 176.199 L 173.889 176.069 171.579 175.997 L 169.270 175.926 168.130 178.185 M108.333 178.519 C 108.191 179.361,108.158 180.133,108.260 180.235 C 108.362 180.337,108.561 179.731,108.704 178.889 C 108.846 178.047,108.879 177.274,108.777 177.172 C 108.675 177.070,108.476 177.676,108.333 178.519 M78.148 178.086 C 78.148 178.324,77.606 178.543,76.944 178.574 C 75.761 178.629,75.758 178.632,76.804 178.788 C 77.866 178.946,78.881 178.387,78.401 177.907 C 78.262 177.768,78.148 177.849,78.148 178.086 M258.975 179.259 C 258.975 179.972,259.051 180.264,259.144 179.907 C 259.237 179.551,259.237 178.968,259.144 178.611 C 259.051 178.255,258.975 178.546,258.975 179.259 M196.389 178.774 C 196.745 178.867,197.329 178.867,197.685 178.774 C 198.042 178.681,197.750 178.604,197.037 178.604 C 196.324 178.604,196.032 178.681,196.389 178.774 M123.889 182.315 C 122.661 185.478,118.208 196.073,116.904 198.931 C 115.502 202.007,111.713 210.986,110.548 213.994 L 109.503 216.692 105.770 216.517 L 102.037 216.343 105.687 216.725 C 109.976 217.175,109.542 217.484,111.500 212.593 C 112.356 210.454,114.223 206.037,115.650 202.778 C 120.785 191.042,122.123 187.913,123.333 184.815 C 124.008 183.083,124.785 181.404,125.058 181.082 C 125.616 180.426,125.718 179.630,125.244 179.630 C 125.072 179.630,124.463 180.838,123.889 182.315 M243.891 183.241 C 242.490 186.804,239.708 193.363,235.918 202.037 C 233.057 208.585,231.093 213.438,231.243 213.589 C 231.378 213.724,236.089 202.877,241.718 189.475 C 243.422 185.417,244.894 182.020,244.989 181.925 C 245.084 181.830,245.164 184.799,245.166 188.523 C 245.169 192.247,245.257 195.381,245.363 195.487 C 245.469 195.592,245.556 192.332,245.556 188.240 C 245.556 184.149,245.657 180.538,245.780 180.215 C 245.904 179.893,245.849 179.630,245.658 179.630 C 245.467 179.630,244.672 181.255,243.891 183.241 M107.778 180.823 C 107.778 180.937,107.518 182.399,107.200 184.073 C 106.883 185.747,106.693 187.186,106.778 187.271 C 106.862 187.356,107.217 185.989,107.566 184.233 C 107.915 182.477,108.105 180.945,107.989 180.829 C 107.873 180.712,107.778 180.710,107.778 180.823 M137.960 182.986 C 137.609 186.015,137.910 186.128,138.361 183.136 C 138.559 181.818,138.609 180.741,138.471 180.741 C 138.334 180.741,138.104 181.751,137.960 182.986 M177.550 184.511 C 171.054 196.057,168.320 206.466,172.850 202.401 L 173.889 201.469 172.678 202.123 C 171.016 203.022,170.678 202.404,171.321 199.645 C 172.186 195.939,176.105 187.328,178.962 182.856 C 179.585 181.881,180.007 180.994,179.898 180.886 C 179.790 180.777,178.733 182.408,177.550 184.511 M258.519 181.667 C 258.519 182.176,258.582 182.593,258.661 182.593 C 258.739 182.593,258.882 182.176,258.980 181.667 C 259.077 181.157,259.013 180.741,258.838 180.741 C 258.662 180.741,258.519 181.157,258.519 181.667 M277.289 182.639 C 276.799 183.734,275.647 186.296,274.728 188.333 C 272.376 193.550,266.961 207.085,267.150 207.274 C 267.237 207.361,268.190 205.218,269.269 202.512 C 272.250 195.034,277.242 183.393,278.184 181.723 C 278.396 181.347,278.482 180.951,278.375 180.844 C 278.267 180.736,277.779 181.544,277.289 182.639 M311.111 181.584 C 311.111 181.655,311.653 182.109,312.315 182.594 C 313.060 183.139,313.318 183.228,312.993 182.828 C 312.500 182.221,311.111 181.303,311.111 181.584 M301.157 183.343 C 296.729 186.551,290.329 195.172,290.379 197.862 C 290.384 198.121,290.979 197.083,291.700 195.556 C 293.728 191.263,298.141 185.892,301.452 183.684 C 304.459 181.680,305.621 182.602,303.915 185.639 C 303.352 186.640,302.972 187.539,303.070 187.638 C 303.434 188.002,305.216 184.256,305.110 183.349 C 304.939 181.888,303.169 181.885,301.157 183.343 M124.966 188.704 C 124.966 192.167,125.022 193.633,125.090 191.963 C 125.159 190.292,125.159 187.459,125.091 185.666 C 125.023 183.874,124.967 185.241,124.966 188.704 M286.444 183.796 C 284.821 185.668,284.339 186.296,284.528 186.296 C 284.636 186.296,285.340 185.546,286.091 184.630 C 287.482 182.932,287.758 182.280,286.444 183.796 M257.977 185.755 C 257.834 186.902,257.794 187.917,257.888 188.011 C 257.982 188.105,258.176 187.244,258.319 186.097 C 258.462 184.950,258.503 183.935,258.409 183.841 C 258.315 183.747,258.120 184.608,257.977 185.755 M227.060 186.505 C 226.796 187.836,226.662 189.008,226.763 189.109 C 226.864 189.210,227.154 188.194,227.407 186.852 C 227.661 185.509,227.794 184.338,227.705 184.248 C 227.615 184.158,227.325 185.174,227.060 186.505 M312.643 187.238 C 312.163 188.576,311.848 189.749,311.943 189.845 C 312.176 190.077,313.787 185.621,313.635 185.165 C 313.569 184.967,313.123 185.900,312.643 187.238 M137.222 188.519 C 137.077 189.969,137.041 191.238,137.143 191.340 C 137.244 191.442,137.447 190.339,137.593 188.889 C 137.738 187.439,137.774 186.169,137.672 186.067 C 137.570 185.965,137.368 187.068,137.222 188.519 M321.192 188.426 C 320.618 188.986,320.491 189.176,320.908 188.847 C 321.325 188.518,322.000 188.065,322.407 187.840 C 322.815 187.614,322.942 187.425,322.691 187.419 C 322.440 187.412,321.765 187.866,321.192 188.426 M106.148 189.296 C 106.012 190.145,105.974 190.912,106.062 191.000 C 106.150 191.089,106.339 190.472,106.481 189.630 C 106.624 188.787,106.663 188.021,106.568 187.926 C 106.473 187.831,106.284 188.447,106.148 189.296 M185.957 187.870 C 186.042 187.921,186.611 188.380,187.222 188.889 L 188.333 189.815 187.435 188.796 C 186.942 188.236,186.372 187.778,186.170 187.778 C 185.968 187.778,185.872 187.819,185.957 187.870 M182.521 189.167 C 181.869 189.927,181.379 190.741,181.575 190.741 C 181.651 190.741,182.082 190.241,182.534 189.630 C 183.427 188.422,183.418 188.122,182.521 189.167 M282.407 189.630 C 282.091 190.241,281.916 190.741,282.018 190.741 C 282.120 190.741,282.462 190.241,282.778 189.630 C 283.094 189.019,283.269 188.519,283.167 188.519 C 283.065 188.519,282.723 189.019,282.407 189.630 M257.211 191.656 C 257.066 193.208,257.027 194.558,257.125 194.656 C 257.223 194.754,257.419 193.561,257.560 192.004 C 257.701 190.448,257.740 189.098,257.646 189.004 C 257.552 188.910,257.357 190.104,257.211 191.656 M260.245 189.537 C 260.152 189.690,259.544 191.198,258.893 192.888 C 257.916 195.427,257.620 195.886,257.189 195.528 C 256.751 195.165,256.669 195.388,256.681 196.899 L 256.696 198.704 257.299 197.593 C 258.712 194.989,261.400 187.639,260.245 189.537 M108.753 190.463 C 108.466 190.921,107.532 192.630,106.678 194.259 L 105.126 197.222 105.325 195.185 C 105.566 192.701,105.367 193.077,104.678 196.406 C 103.956 199.898,104.481 199.431,107.208 194.158 C 109.382 189.955,110.001 188.475,108.753 190.463 M152.113 193.600 C 148.081 203.213,143.504 215.479,143.829 215.804 C 143.994 215.969,144.202 215.438,146.108 210.000 C 147.389 206.344,150.237 198.951,151.316 196.481 C 152.948 192.746,154.068 189.870,153.941 189.743 C 153.860 189.662,153.037 191.398,152.113 193.600 M226.111 191.111 C 225.969 191.953,225.936 192.726,226.038 192.828 C 226.139 192.930,226.339 192.324,226.481 191.481 C 226.624 190.639,226.657 189.867,226.555 189.765 C 226.453 189.663,226.253 190.269,226.111 191.111 M229.356 190.093 C 229.156 190.347,228.262 191.972,227.370 193.703 C 225.837 196.677,225.736 196.789,225.539 195.740 C 225.349 194.729,225.304 194.791,225.043 196.436 C 224.885 197.430,224.676 198.513,224.579 198.844 C 224.221 200.063,225.800 197.540,227.835 193.642 C 229.846 189.787,230.146 189.088,229.356 190.093 M138.308 193.420 C 136.979 196.604,136.858 196.772,136.630 195.741 C 136.439 194.877,136.377 195.083,136.355 196.667 L 136.326 198.704 136.933 197.593 C 137.743 196.110,140.033 190.280,139.870 190.117 C 139.799 190.045,139.096 191.532,138.308 193.420 M311.323 191.323 C 311.187 191.866,311.146 192.381,311.234 192.468 C 311.321 192.556,311.504 192.183,311.640 191.640 C 311.776 191.097,311.816 190.582,311.729 190.495 C 311.642 190.407,311.459 190.780,311.323 191.323 M93.790 192.222 C 93.790 192.935,93.866 193.227,93.959 192.870 C 94.052 192.514,94.052 191.931,93.959 191.574 C 93.866 191.218,93.790 191.509,93.790 192.222 M325.955 191.371 C 325.939 191.616,324.897 193.616,323.639 195.815 C 319.145 203.675,315.934 207.833,312.707 209.970 C 311.759 210.598,311.152 211.111,311.358 211.111 C 313.625 211.111,318.648 205.249,323.419 197.037 C 326.167 192.308,326.373 191.882,326.164 191.368 C 326.026 191.027,325.978 191.028,325.955 191.371 M136.672 193.056 C 136.669 193.819,136.731 194.444,136.809 194.444 C 137.130 194.444,137.273 192.604,136.987 192.154 C 136.790 191.843,136.676 192.170,136.672 193.056 M185.410 196.619 C 179.503 207.439,175.233 212.091,170.098 213.301 C 168.990 213.562,168.901 213.637,169.663 213.666 C 173.235 213.805,179.012 208.662,182.934 201.852 C 183.579 200.731,184.259 199.565,184.444 199.259 C 186.126 196.487,188.187 192.532,188.087 192.269 C 188.019 192.089,186.814 194.046,185.410 196.619 M310.412 195.288 C 309.300 201.674,310.732 203.886,313.525 200.098 L 314.553 198.704 313.144 200.109 C 310.653 202.595,309.890 201.249,310.728 195.847 C 311.237 192.564,310.969 192.090,310.412 195.288 M178.320 195.648 C 177.749 196.514,177.518 197.027,177.807 196.788 C 178.364 196.328,179.782 194.074,179.515 194.074 C 179.428 194.074,178.891 194.782,178.320 195.648 M93.455 197.963 C 93.457 199.389,93.523 199.927,93.604 199.158 C 93.684 198.390,93.682 197.223,93.601 196.566 C 93.519 195.908,93.453 196.537,93.455 197.963 M315.357 197.130 C 314.786 197.995,314.555 198.508,314.844 198.269 C 315.401 197.810,316.819 195.556,316.552 195.556 C 316.465 195.556,315.928 196.264,315.357 197.130 M213.822 198.519 C 213.822 199.843,213.889 200.384,213.972 199.722 C 214.054 199.060,214.054 197.977,213.972 197.315 C 213.889 196.653,213.822 197.194,213.822 198.519 M289.863 199.352 C 288.715 203.637,290.290 205.543,292.795 202.900 L 294.259 201.355 292.471 202.782 C 290.274 204.537,289.872 204.200,290.151 200.833 C 290.349 198.434,290.248 197.914,289.863 199.352 M175.004 199.996 C 174.420 200.605,174.020 201.181,174.115 201.275 C 174.209 201.370,174.746 200.872,175.307 200.168 C 176.562 198.595,176.422 198.516,175.004 199.996 M245.656 201.111 C 245.656 202.028,245.729 202.403,245.817 201.944 C 245.905 201.486,245.905 200.736,245.817 200.278 C 245.729 199.819,245.656 200.194,245.656 201.111 M125.291 201.667 C 125.294 202.685,125.366 203.058,125.451 202.495 C 125.536 201.932,125.534 201.099,125.446 200.643 C 125.358 200.188,125.288 200.648,125.291 201.667 M278.254 203.148 C 278.257 204.167,278.329 204.539,278.414 203.976 C 278.499 203.413,278.497 202.580,278.409 202.125 C 278.321 201.669,278.251 202.130,278.254 203.148 M158.619 204.815 C 158.619 205.731,158.692 206.106,158.780 205.648 C 158.868 205.190,158.868 204.440,158.780 203.981 C 158.692 203.523,158.619 203.898,158.619 204.815 M213.810 206.852 C 213.812 207.870,213.884 208.243,213.969 207.680 C 214.055 207.117,214.052 206.284,213.964 205.828 C 213.877 205.373,213.807 205.833,213.810 206.852 M93.434 207.407 C 93.434 208.324,93.506 208.699,93.595 208.241 C 93.683 207.782,93.683 207.032,93.595 206.574 C 93.506 206.116,93.434 206.491,93.434 207.407 M125.656 207.407 C 125.656 208.324,125.729 208.699,125.817 208.241 C 125.905 207.782,125.905 207.032,125.817 206.574 C 125.729 206.116,125.656 206.491,125.656 207.407 M246.019 207.593 C 246.023 208.407,246.099 208.697,246.188 208.236 C 246.276 207.776,246.273 207.109,246.180 206.755 C 246.088 206.401,246.015 206.778,246.019 207.593 M297.849 208.743 C 296.585 209.984,296.423 210.242,297.255 209.687 C 297.884 209.267,298.613 208.666,298.875 208.351 C 299.561 207.524,299.851 207.634,300.384 208.923 C 301.127 210.717,303.238 211.894,305.994 212.051 L 308.333 212.185 306.296 211.891 C 303.007 211.417,300.370 209.565,300.370 207.728 C 300.370 206.642,299.723 206.903,297.849 208.743 M265.354 211.921 C 263.956 216.147,263.929 216.248,264.379 215.556 C 264.895 214.762,266.725 209.194,266.533 209.002 C 266.445 208.914,265.914 210.227,265.354 211.921 M294.828 210.995 C 294.337 211.339,293.008 212.002,291.875 212.468 C 290.742 212.934,290.102 213.320,290.453 213.325 C 291.285 213.336,295.030 211.560,295.585 210.890 C 296.158 210.200,295.915 210.234,294.828 210.995 M161.523 211.960 C 162.831 213.221,165.446 214.128,167.518 214.039 C 167.967 214.020,167.180 213.775,165.771 213.496 C 164.007 213.145,162.738 212.626,161.697 211.829 L 160.185 210.671 161.523 211.960 M281.457 211.247 C 282.199 212.169,284.746 213.410,285.491 213.213 C 285.967 213.087,285.935 213.039,285.352 213.006 C 284.934 212.982,284.434 212.823,284.241 212.652 C 283.253 211.779,280.948 210.615,281.457 211.247 M309.259 211.481 C 308.496 211.726,308.464 211.784,309.074 211.809 C 309.481 211.826,310.065 211.679,310.370 211.481 C 311.019 211.062,310.569 211.062,309.259 211.481 M126.012 212.963 C 126.012 213.676,126.088 213.968,126.181 213.611 C 126.274 213.255,126.274 212.671,126.181 212.315 C 126.088 211.958,126.012 212.250,126.012 212.963 M246.382 212.963 C 246.382 213.676,246.458 213.968,246.552 213.611 C 246.645 213.255,246.645 212.671,246.552 212.315 C 246.458 211.958,246.382 212.250,246.382 212.963 M287.135 213.599 C 287.698 213.684,288.531 213.682,288.987 213.594 C 289.442 213.506,288.981 213.436,287.963 213.439 C 286.944 213.442,286.572 213.514,287.135 213.599 M96.290 214.622 C 96.799 215.235,99.828 216.311,100.899 216.259 C 101.321 216.239,101.037 216.074,100.267 215.892 C 99.498 215.711,98.193 215.237,97.368 214.838 C 96.415 214.378,96.022 214.299,96.290 214.622 M216.597 214.538 C 217.147 215.210,220.109 216.309,221.270 216.272 C 221.692 216.259,221.123 216.002,220.005 215.702 C 218.887 215.401,217.554 214.883,217.042 214.550 C 216.208 214.008,216.162 214.006,216.597 214.538 M230.326 215.354 L 229.843 216.690 226.125 216.443 C 224.080 216.308,222.491 216.281,222.593 216.383 C 222.694 216.486,224.407 216.685,226.398 216.826 L 230.019 217.083 230.587 215.724 C 230.899 214.976,231.077 214.287,230.982 214.191 C 230.887 214.096,230.591 214.620,230.326 215.354 M143.158 217.112 C 142.914 218.028,142.713 218.125,140.798 218.246 L 138.704 218.378 140.820 218.448 C 142.982 218.520,144.046 217.791,143.588 216.554 C 143.498 216.310,143.305 216.562,143.158 217.112 M263.579 217.114 C 263.349 218.030,263.155 218.122,261.201 218.245 L 259.074 218.378 261.191 218.448 C 263.347 218.520,264.393 217.809,263.976 216.556 C 263.895 216.315,263.716 216.566,263.579 217.114 M127.982 217.068 C 128.331 217.632,130.747 218.522,131.804 218.476 C 132.610 218.441,132.555 218.390,131.481 218.179 C 130.769 218.039,129.641 217.653,128.975 217.321 C 128.310 216.989,127.863 216.875,127.982 217.068 M250.370 218.129 C 250.676 218.337,251.412 218.510,252.006 218.513 C 253.429 218.520,253.134 218.306,251.296 217.998 C 250.235 217.821,249.972 217.858,250.370 218.129 M134.344 218.786 C 135.001 218.868,136.168 218.869,136.936 218.789 C 137.705 218.709,137.167 218.642,135.741 218.640 C 134.315 218.638,133.686 218.704,134.344 218.786 M255.653 218.784 C 256.216 218.869,257.050 218.867,257.505 218.779 C 257.961 218.691,257.500 218.622,256.481 218.624 C 255.463 218.627,255.090 218.699,255.653 218.784 " stroke="none" fill="#a0d298" fill-rule="evenodd"></path><path id="path4" d="M204.573 127.577 C 204.624 128.570,204.498 128.695,203.230 128.909 C 200.984 129.289,200.140 131.618,201.090 134.815 C 201.291 135.491,201.362 135.218,201.353 133.803 C 201.338 131.476,202.531 129.811,203.957 130.169 C 205.192 130.479,205.722 129.271,205.042 127.698 L 204.516 126.481 204.573 127.577 M198.619 132.222 C 198.619 133.139,198.692 133.514,198.780 133.056 C 198.868 132.597,198.868 131.847,198.780 131.389 C 198.692 130.931,198.619 131.306,198.619 132.222 M195.370 134.784 L 194.259 135.035 195.347 135.257 C 196.533 135.499,197.407 135.295,197.407 134.775 C 197.407 134.409,197.018 134.411,195.370 134.784 M192.418 136.649 C 192.097 137.169,193.385 138.519,194.202 138.519 C 194.724 138.519,194.806 138.638,194.520 138.983 C 193.929 139.695,194.896 140.740,196.152 140.746 C 197.015 140.751,197.115 140.830,196.667 141.152 C 196.205 141.484,196.225 141.514,196.790 141.331 C 197.163 141.210,197.538 141.111,197.623 141.111 C 197.708 141.111,197.778 140.944,197.778 140.741 C 197.778 140.537,197.403 140.365,196.944 140.359 C 196.132 140.347,196.129 140.333,196.830 139.803 C 197.674 139.165,197.606 139.148,196.021 139.602 C 194.103 140.153,194.191 139.342,196.140 138.506 C 198.284 137.587,198.042 137.160,195.710 137.747 C 193.305 138.353,193.248 137.989,195.624 137.199 C 198.056 136.390,197.545 136.110,194.892 136.798 C 193.183 137.242,191.797 137.049,193.053 136.542 C 193.386 136.408,193.393 136.346,193.077 136.326 C 192.835 136.309,192.538 136.455,192.418 136.649 M183.241 138.544 C 182.477 138.947,181.852 139.360,181.852 139.461 C 181.852 139.626,184.777 138.259,185.154 137.917 C 185.581 137.532,184.468 137.896,183.241 138.544 M195.561 141.669 C 195.558 141.874,195.093 142.246,194.529 142.496 C 193.378 143.005,192.983 145.712,194.002 146.103 C 194.381 146.249,194.446 146.037,194.269 145.232 C 194.043 144.200,194.484 143.684,195.741 143.509 C 196.511 143.402,198.148 142.459,198.148 142.123 C 198.148 141.928,197.711 141.881,197.165 142.018 C 196.526 142.179,196.074 142.096,195.874 141.781 C 195.705 141.514,195.564 141.464,195.561 141.669 M179.631 143.910 C 179.626 145.400,183.866 148.884,187.266 150.182 C 188.543 150.670,188.883 150.964,188.705 151.429 C 188.578 151.763,189.067 151.463,189.792 150.761 C 190.518 150.059,191.111 149.405,191.111 149.307 C 191.111 149.210,190.712 149.505,190.224 149.963 C 189.451 150.690,188.299 150.466,189.034 149.732 C 189.154 149.611,189.090 149.316,188.890 149.076 C 188.137 148.168,190.222 146.788,191.120 147.601 C 191.537 147.978,191.785 148.529,191.671 148.825 C 191.501 149.269,191.564 149.281,192.029 148.896 C 192.668 148.365,192.779 147.196,192.222 146.852 C 191.585 146.458,191.818 145.495,192.600 145.290 C 193.189 145.137,193.258 144.985,192.925 144.584 C 191.873 143.317,190.315 144.637,191.264 145.992 C 192.174 147.292,191.963 147.537,190.706 146.642 L 189.561 145.826 188.582 146.805 C 187.719 147.669,187.660 147.875,188.087 148.558 C 188.828 149.745,188.462 149.740,185.757 148.526 C 182.608 147.113,181.224 146.129,180.335 144.671 C 179.949 144.037,179.632 143.694,179.631 143.910 M198.519 147.754 C 197.104 148.187,194.135 149.793,191.667 151.460 C 189.311 153.051,188.695 153.247,188.393 152.500 C 188.282 152.223,188.195 152.298,188.177 152.685 C 188.161 153.042,188.398 153.333,188.704 153.333 C 189.012 153.333,189.259 153.663,189.259 154.074 C 189.259 154.953,189.730 155.031,190.370 154.259 C 190.998 153.504,191.507 153.558,191.241 154.352 C 191.121 154.708,191.449 154.399,191.970 153.664 C 193.605 151.359,200.364 148.148,203.582 148.148 C 203.877 148.148,204.015 147.981,203.889 147.778 C 203.625 147.351,199.890 147.335,198.519 147.754 M207.551 149.717 C 207.578 150.251,207.856 150.578,208.333 150.637 C 208.741 150.687,208.866 150.633,208.611 150.518 C 208.356 150.403,208.148 149.989,208.148 149.599 C 208.148 149.208,208.004 148.889,207.828 148.889 C 207.652 148.889,207.527 149.262,207.551 149.717 M199.330 151.091 C 197.181 151.706,194.074 152.938,194.074 153.176 C 194.074 153.231,194.574 153.776,195.185 154.387 C 195.796 154.999,196.296 155.378,196.296 155.231 C 196.296 155.083,196.121 154.787,195.906 154.573 C 195.484 154.150,197.973 152.925,200.370 152.376 C 201.083 152.213,201.792 152.049,201.944 152.012 C 202.097 151.975,202.390 151.924,202.596 151.898 C 202.823 151.870,202.788 151.561,202.507 151.111 C 202.252 150.704,201.959 150.382,201.855 150.397 C 201.752 150.411,200.615 150.724,199.330 151.091 M207.084 152.825 C 206.713 153.245,206.222 153.332,205.255 153.151 C 204.079 152.930,203.987 152.968,204.420 153.489 C 205.318 154.571,208.148 154.142,208.148 152.923 C 208.148 152.081,207.773 152.046,207.084 152.825 M234.354 155.451 C 233.056 160.502,230.682 170.647,229.997 174.074 C 229.610 176.009,228.527 181.259,227.590 185.741 C 225.011 198.074,225.013 198.315,227.651 193.148 C 228.379 191.722,229.164 190.322,229.395 190.036 C 229.626 189.750,229.830 189.167,229.849 188.740 C 229.974 185.863,235.483 161.668,237.017 157.257 C 237.992 154.454,238.003 154.520,236.501 154.239 C 235.799 154.107,235.174 153.761,235.113 153.469 C 235.051 153.178,234.709 154.070,234.354 155.451 M114.155 155.041 C 113.912 156.037,113.370 158.102,112.950 159.630 C 112.530 161.157,112.040 163.074,111.861 163.889 C 111.682 164.704,111.183 166.954,110.752 168.889 C 110.321 170.824,109.651 173.991,109.262 175.926 C 108.873 177.861,107.797 183.092,106.870 187.550 C 104.780 197.605,104.782 198.029,106.904 193.889 C 107.843 192.056,108.812 190.306,109.056 190.000 C 109.300 189.694,109.533 188.884,109.574 188.199 C 109.615 187.515,110.066 185.015,110.577 182.644 C 111.089 180.273,111.905 176.417,112.391 174.074 C 113.677 167.880,115.432 160.979,116.565 157.660 C 117.628 154.546,117.516 154.093,115.679 154.080 C 115.238 154.077,114.813 153.884,114.736 153.652 C 114.659 153.420,114.397 154.045,114.155 155.041 M172.778 155.088 C 165.576 165.879,158.047 180.137,152.776 192.963 C 152.399 193.880,151.809 195.296,151.464 196.111 C 150.018 199.524,147.378 206.375,146.111 210.000 C 145.363 212.139,144.498 214.556,144.187 215.370 C 143.877 216.185,143.488 217.205,143.323 217.636 C 142.811 218.976,133.300 219.192,129.352 217.953 C 128.298 217.622,128.262 218.230,129.254 219.623 C 130.744 221.715,134.968 222.549,141.568 222.054 L 145.109 221.788 145.674 220.246 C 145.986 219.398,146.850 216.954,147.595 214.815 C 151.097 204.768,157.296 190.204,162.492 179.815 C 166.921 170.961,171.533 163.052,175.079 158.227 C 177.246 155.278,177.253 155.126,175.253 154.114 L 173.889 153.423 172.778 155.088 M291.991 156.796 C 287.651 163.320,279.672 177.873,277.138 183.889 C 276.709 184.907,275.582 187.491,274.634 189.630 C 272.036 195.490,267.202 207.556,265.948 211.308 C 265.338 213.135,264.534 215.463,264.162 216.481 L 263.485 218.333 259.828 218.595 C 256.362 218.843,251.545 218.539,249.722 217.957 C 248.650 217.615,248.604 218.427,249.623 219.722 C 251.202 221.729,255.477 222.538,261.943 222.054 L 265.489 221.788 266.233 219.690 C 275.624 193.192,286.379 170.568,295.450 158.227 C 297.618 155.277,297.624 155.129,295.617 154.105 L 294.246 153.406 291.991 156.796 M143.153 155.648 C 142.984 156.149,140.942 166.929,140.330 170.556 C 140.124 171.778,139.722 174.111,139.438 175.741 C 139.154 177.370,138.835 179.370,138.730 180.185 C 138.625 181.000,138.282 183.583,137.968 185.926 C 137.654 188.269,137.325 190.852,137.237 191.667 C 137.149 192.481,136.962 193.940,136.822 194.907 C 136.681 195.875,136.654 196.667,136.761 196.667 C 137.099 196.667,140.148 189.138,140.095 188.434 C 140.068 188.064,140.171 187.840,140.326 187.935 C 140.480 188.031,140.540 187.655,140.459 187.100 C 140.277 185.863,141.677 177.182,143.957 165.402 L 145.672 156.546 144.832 155.865 C 143.848 155.069,143.370 155.007,143.153 155.648 M263.375 156.574 C 261.996 161.939,258.944 180.358,257.620 191.296 C 257.003 196.400,257.365 196.859,258.887 192.904 C 259.541 191.205,260.180 189.648,260.307 189.444 C 260.433 189.241,260.486 188.764,260.424 188.385 C 260.361 188.007,260.460 187.790,260.644 187.903 C 260.827 188.016,260.910 187.654,260.829 187.098 C 260.646 185.854,262.054 177.152,264.335 165.420 L 266.054 156.582 265.157 155.892 C 263.918 154.940,263.782 154.992,263.375 156.574 M191.111 156.097 C 191.111 156.245,191.440 156.828,191.841 157.392 C 192.242 157.956,192.506 158.481,192.428 158.560 C 192.349 158.639,193.126 158.704,194.155 158.704 C 195.512 158.704,196.135 158.531,196.425 158.073 C 196.913 157.306,196.457 156.729,195.846 157.340 C 195.006 158.179,192.718 157.869,191.879 156.802 C 191.457 156.265,191.111 155.948,191.111 156.097 M93.333 160.414 C 84.046 162.888,80.593 166.612,78.782 176.111 L 78.287 178.704 74.977 178.571 C 71.236 178.421,69.645 177.894,67.781 176.185 C 66.904 175.381,66.732 175.298,67.246 175.926 C 67.663 176.435,68.465 177.575,69.029 178.459 C 71.062 181.646,80.361 183.766,80.660 181.111 C 81.576 172.993,84.176 168.663,89.761 165.959 C 92.781 164.497,97.316 163.244,97.507 163.819 C 97.586 164.053,97.679 163.504,97.714 162.598 C 97.750 161.692,97.873 160.654,97.988 160.290 C 98.269 159.407,96.987 159.441,93.333 160.414 M214.630 160.173 C 205.386 162.189,200.661 166.811,199.571 174.903 C 199.047 178.789,198.825 178.980,195.196 178.657 C 191.764 178.352,189.779 177.686,188.395 176.375 C 187.477 175.505,187.536 175.674,188.833 177.637 C 191.051 180.995,193.748 182.222,198.907 182.222 L 201.111 182.222 201.111 180.906 C 201.111 172.155,209.005 163.704,217.180 163.704 C 217.644 163.704,218.034 163.495,218.046 163.241 C 218.057 162.986,218.190 162.069,218.340 161.204 C 218.658 159.370,218.507 159.328,214.630 160.173 M184.789 172.058 C 184.265 172.861,183.728 173.813,183.595 174.172 C 183.024 175.712,179.846 175.662,177.704 174.078 L 176.639 173.291 177.193 174.616 C 177.765 175.985,178.838 177.689,178.989 177.466 C 179.337 176.949,181.135 178.390,180.969 179.052 C 180.795 179.747,180.820 179.759,181.253 179.180 C 181.599 178.719,182.075 178.596,182.994 178.730 C 184.525 178.955,184.795 178.780,186.079 176.730 C 187.004 175.253,187.040 175.059,186.530 174.282 C 186.226 173.817,185.924 172.798,185.859 172.017 L 185.741 170.597 184.789 172.058 M179.982 180.974 C 179.778 181.510,179.293 182.396,178.903 182.943 C 175.502 187.720,170.242 200.815,171.140 202.269 C 171.662 203.114,173.945 201.665,174.214 200.318 C 174.661 198.083,180.557 186.518,182.662 183.746 C 183.633 182.469,183.504 182.112,181.817 181.403 C 180.972 181.048,180.413 180.600,180.547 180.385 C 180.677 180.173,180.687 180.000,180.568 180.000 C 180.449 180.000,180.185 180.438,179.982 180.974 M124.474 181.944 C 123.086 185.537,120.923 190.794,119.700 193.550 C 116.106 201.644,112.936 209.004,111.500 212.593 C 110.644 214.731,109.800 216.629,109.626 216.809 C 108.716 217.747,97.730 215.927,96.257 214.594 C 95.665 214.058,95.655 214.112,96.100 215.437 C 97.035 218.225,100.983 219.798,108.181 220.251 C 111.022 220.430,111.775 220.372,111.943 219.960 C 112.059 219.676,112.989 217.361,114.009 214.815 C 115.030 212.269,117.307 206.935,119.070 202.963 C 124.854 189.928,124.703 190.385,124.886 185.463 C 125.054 180.935,125.010 180.558,124.474 181.944 M241.927 188.981 C 240.289 192.903,237.097 200.444,234.832 205.741 C 232.567 211.037,230.556 215.745,230.365 216.204 C 229.962 217.165,230.037 217.159,224.519 216.642 C 220.172 216.235,217.734 215.595,216.591 214.561 C 215.956 213.986,215.943 214.013,216.328 215.117 C 217.347 218.040,221.366 219.790,228.024 220.209 L 232.037 220.462 233.420 217.175 C 237.067 208.507,239.441 202.959,242.157 196.750 L 245.119 189.981 245.157 185.917 C 245.178 183.681,245.130 181.852,245.049 181.852 C 244.969 181.852,243.564 185.060,241.927 188.981 M301.452 183.684 C 294.959 188.012,288.066 200.377,290.314 203.667 C 290.815 204.400,292.683 202.895,292.815 201.652 C 293.128 198.717,302.593 185.497,302.593 187.995 C 302.593 188.136,303.115 187.240,303.753 186.003 C 305.533 182.551,304.585 181.596,301.452 183.684 M312.820 188.061 C 310.864 193.226,309.689 200.646,310.725 201.287 C 311.437 201.726,312.902 200.774,312.701 200.003 C 312.507 199.262,314.102 193.118,315.233 190.249 C 316.075 188.112,315.935 187.125,314.659 186.209 L 313.764 185.567 312.820 188.061 M188.199 191.260 C 188.155 192.514,186.850 195.293,184.444 199.259 C 184.259 199.565,183.579 200.731,182.934 201.852 C 177.228 211.761,169.349 216.219,163.059 213.098 L 161.488 212.318 162.260 213.691 C 165.148 218.830,173.699 218.525,178.967 213.095 C 181.953 210.017,182.564 209.198,185.145 204.815 C 190.862 195.105,191.202 194.131,189.472 192.401 C 188.977 191.906,188.500 191.122,188.411 190.658 C 188.313 190.147,188.229 190.383,188.199 191.260 M326.317 190.926 C 326.303 191.537,325.517 193.370,324.571 195.000 C 323.625 196.630,322.418 198.715,321.888 199.635 C 316.445 209.089,310.096 213.511,304.273 211.903 C 302.009 211.278,302.203 212.434,304.679 214.322 C 309.989 218.372,317.806 213.629,324.311 202.407 C 325.137 200.981,326.422 198.761,327.166 197.473 C 328.733 194.761,328.909 193.059,327.734 192.002 C 327.303 191.614,326.813 190.963,326.646 190.556 C 326.389 189.927,326.339 189.983,326.317 190.926 M124.916 196.296 C 124.916 197.213,124.988 197.588,125.076 197.130 C 125.164 196.671,125.164 195.921,125.076 195.463 C 124.988 195.005,124.916 195.380,124.916 196.296 M245.279 196.852 C 245.283 197.667,245.359 197.956,245.447 197.496 C 245.536 197.035,245.532 196.368,245.440 196.014 C 245.347 195.660,245.274 196.037,245.279 196.852 M298.889 208.333 C 294.654 213.436,285.870 215.069,281.696 211.529 C 280.723 210.704,281.189 211.529,282.898 213.657 C 286.844 218.570,293.742 218.072,300.181 212.410 C 300.994 211.696,301.822 211.111,302.023 211.111 C 302.223 211.111,302.040 210.868,301.615 210.570 C 301.190 210.273,300.633 209.523,300.376 208.904 C 299.853 207.640,299.558 207.527,298.889 208.333 " stroke="none" fill="#cbcfca" fill-rule="evenodd"></path></g></svg>